<?xml version="1.0" encoding="UTF-8" standalone="no"?>
<!DOCTYPE svg PUBLIC "-//W3C//DTD SVG 1.1//EN" "http://www.w3.org/Graphics/SVG/1.1/DTD/svg11.dtd">
<svg version="1.1" xmlns="http://www.w3.org/2000/svg" xmlns:xlink="http://www.w3.org/1999/xlink" preserveAspectRatio="xMidYMid meet" viewBox="244.42904033482398 58.63202380952214 192 192.00000000000009" width="46" height="46"><defs><path d="M358.41 174.11C357.53 175.03 353.14 179.64 345.23 187.94C329.36 204.46 320.54 213.64 318.78 215.47C310.11 224.6 301.4 233.68 292.76 242.84C293.39 240.87 293.72 238.79 293.72 236.64C293.72 229.42 290.04 222.87 284.18 219.15C284.18 217.71 284.18 210.51 284.18 197.55C297.36 184.28 304.68 176.91 306.15 175.43C308.2 173.36 309.04 170.3 308.34 167.46C306.88 161.56 299.57 132.06 286.43 78.96L313.61 107.5L341.19 136.15C349.43 144.79 354.01 149.59 354.92 150.55C359.29 155.13 363.74 159.63 368.28 164.05C364.94 167.35 361.65 170.7 358.41 174.11Z" id="a1PO7PB2Pd"></path><path d="M293.26 242.99C302.29 234.35 311.25 225.63 320.26 216.96C322.08 215.18 331.19 206.3 347.59 190.31C355.84 182.35 360.42 177.93 361.33 177.05C364.73 173.76 368.09 170.43 371.39 167.04C371.86 167.49 375.62 171.09 376.09 171.55C378.52 173.8 380.91 176.11 383.36 178.34C387.97 182.59 392.63 186.79 397.42 190.84C376.59 201.27 303.67 237.78 293.26 242.99Z" id="bhByo6gmA"></path><path d="M385.73 147.46C383.37 149.59 381.06 151.79 378.74 153.96C378.05 154.62 372.53 159.9 371.84 160.56C371.66 160.74 371.46 160.92 371.28 161.11C366.88 156.52 362.39 152.03 357.84 147.61C356.88 146.69 352.12 142.08 343.55 133.78L315.09 106.01L286.96 78.86L399.58 135.23C393.37 140.6 388.75 144.67 385.73 147.46Z" id="a7EfJntkX"></path><path d="M397.98 190.56C393.9 185.68 389.69 180.94 385.43 176.25C383.21 173.78 380.94 171.37 378.69 168.93C378.24 168.45 374.62 164.63 374.17 164.15C374.38 163.95 374.59 163.72 374.79 163.52C375.44 162.82 380.68 157.27 381.34 156.58C383.5 154.23 385.67 151.91 387.8 149.53C391.97 144.93 396.09 140.28 400.05 135.47C402.9 136.89 425.73 148.32 428.58 149.75C439.04 154.98 439.04 170.01 428.58 175.24C422.46 178.31 401.04 189.03 397.98 190.56Z" id="a2LWzWmQK"></path><path d="M273.4 58.65L273.51 58.66L273.61 58.69L273.72 58.72L273.83 58.75L273.93 58.8L274.03 58.85L274.13 58.9L274.22 58.97L274.31 59.04L274.39 59.11L274.48 59.2L274.55 59.29L274.62 59.38L274.69 59.49L274.74 59.6L274.79 59.71L274.84 59.84L274.88 59.97L278.6 75.06L301.88 169.09L301.88 169.14L301.89 169.18L301.9 169.22L301.91 169.26L301.91 169.31L301.92 169.35L301.92 169.39L301.92 169.44L301.92 169.48L301.92 169.52L301.92 169.57L301.92 169.61L301.92 169.65L301.91 169.69L301.91 169.74L301.9 169.78L301.89 169.82L301.88 169.86L301.87 169.9L301.86 169.95L301.85 169.99L301.84 170.03L301.82 170.07L301.81 170.11L301.79 170.15L301.78 170.19L301.76 170.23L301.74 170.27L301.72 170.3L301.7 170.34L301.68 170.38L301.65 170.41L301.63 170.45L301.6 170.49L301.58 170.52L301.55 170.56L301.52 170.59L301.49 170.62L301.46 170.66L301.43 170.69L278.9 193.37L278.84 193.43L278.77 193.5L278.71 193.58L278.65 193.65L278.59 193.72L278.53 193.79L278.47 193.87L278.42 193.95L278.36 194.02L278.31 194.1L278.26 194.18L278.21 194.26L278.16 194.34L278.12 194.42L278.07 194.5L278.03 194.59L277.99 194.67L277.95 194.76L277.91 194.84L277.87 194.93L277.84 195.01L277.81 195.1L277.77 195.19L277.74 195.28L277.72 195.37L277.69 195.46L277.67 195.55L277.64 195.64L277.62 195.73L277.6 195.82L277.59 195.92L277.57 196.01L277.56 196.1L277.55 196.2L277.54 196.29L277.53 196.39L277.52 196.48L277.52 196.58L277.52 196.67L277.51 196.77L277.51 223.37L277.93 223.51L278.34 223.67L278.74 223.84L279.13 224.02L279.52 224.21L279.9 224.42L280.27 224.63L280.64 224.86L281 225.1L281.35 225.35L281.69 225.6L282.03 225.87L282.35 226.15L282.67 226.44L282.97 226.74L283.27 227.05L283.56 227.37L283.84 227.69L284.11 228.03L284.37 228.37L284.62 228.72L284.86 229.08L285.08 229.45L285.3 229.82L285.5 230.21L285.7 230.6L285.88 230.99L286.05 231.39L286.2 231.8L286.35 232.22L286.48 232.64L286.6 233.06L286.7 233.5L286.8 233.93L286.88 234.37L286.94 234.82L286.99 235.27L287.03 235.73L287.05 236.19L287.06 236.65L287.05 237.15L287.02 237.65L286.98 238.14L286.92 238.63L286.84 239.11L286.75 239.59L286.64 240.06L286.52 240.53L286.38 240.99L286.22 241.44L286.05 241.88L285.87 242.32L285.67 242.75L285.46 243.17L285.23 243.58L285 243.99L284.74 244.38L284.48 244.77L284.2 245.15L283.91 245.51L283.61 245.87L283.3 246.21L282.98 246.55L282.64 246.88L282.3 247.19L281.94 247.49L281.58 247.78L281.2 248.06L280.82 248.32L280.43 248.57L280.02 248.81L279.61 249.04L279.19 249.25L278.77 249.45L278.33 249.63L277.89 249.8L277.44 249.96L276.99 250.1L276.52 250.22L276.05 250.33L275.92 250.36L275.79 250.38L275.66 250.41L275.53 250.43L275.4 250.45L275.27 250.47L275.13 250.49L275 250.51L274.87 250.53L274.73 250.55L274.6 250.56L274.46 250.57L274.33 250.59L274.19 250.6L274.05 250.6L273.92 250.61L273.78 250.62L273.64 250.62L273.51 250.63L273.37 250.63L273.23 250.63L273.09 250.63L272.95 250.63L272.82 250.63L272.68 250.62L272.54 250.62L272.4 250.61L272.26 250.6L272.12 250.59L271.98 250.58L271.84 250.57L271.7 250.56L271.56 250.54L271.42 250.53L271.28 250.51L271.15 250.49L271.01 250.47L270.87 250.45L270.73 250.43L270.59 250.4L270.1 250.31L269.62 250.19L269.14 250.06L268.68 249.92L268.22 249.75L267.77 249.57L267.33 249.38L266.89 249.16L266.47 248.94L266.05 248.7L265.65 248.44L265.25 248.17L264.86 247.89L264.49 247.6L264.12 247.29L263.77 246.97L263.43 246.64L263.1 246.29L262.78 245.94L262.47 245.57L262.17 245.19L261.89 244.81L261.62 244.41L261.37 244.01L261.12 243.59L260.9 243.17L260.68 242.74L260.48 242.3L260.29 241.85L260.12 241.4L259.97 240.94L259.83 240.48L259.7 240L259.59 239.53L259.5 239.04L259.43 238.56L259.37 238.07L259.33 237.57L259.3 237.07L259.29 236.57L259.3 236.38L259.3 236.19L259.31 236.01L259.32 235.82L259.33 235.64L259.34 235.45L259.36 235.27L259.38 235.08L259.4 234.9L259.43 234.72L259.45 234.54L259.48 234.36L259.51 234.18L259.54 234L259.58 233.82L259.61 233.65L259.65 233.47L259.69 233.3L259.74 233.12L259.78 232.95L259.83 232.78L259.88 232.6L259.93 232.43L259.99 232.26L260.04 232.09L260.1 231.93L260.16 231.76L260.23 231.59L260.29 231.43L260.36 231.27L260.43 231.1L260.5 230.94L260.57 230.78L260.64 230.62L260.72 230.46L260.8 230.3L260.88 230.15L260.96 229.99L261.05 229.84L261.13 229.69L261.26 229.46L261.4 229.25L261.53 229.03L261.67 228.82L261.82 228.61L261.96 228.4L262.12 228.2L262.27 227.99L262.43 227.8L262.59 227.6L262.76 227.41L262.92 227.22L263.1 227.03L263.27 226.85L263.45 226.67L263.63 226.49L263.82 226.32L264.01 226.15L264.2 225.98L264.39 225.82L264.59 225.66L264.79 225.5L264.99 225.35L265.2 225.2L265.4 225.06L265.62 224.92L265.83 224.78L266.05 224.65L266.27 224.52L266.49 224.39L266.71 224.27L266.94 224.15L267.17 224.04L267.4 223.93L267.63 223.83L267.87 223.72L268.11 223.63L268.35 223.54L268.59 223.45L268.83 223.36L268.83 196.76L268.83 196.66L268.83 196.56L268.83 196.47L268.82 196.38L268.81 196.28L268.8 196.19L268.79 196.09L268.78 196L268.76 195.91L268.74 195.81L268.72 195.72L268.7 195.63L268.68 195.54L268.66 195.45L268.63 195.36L268.6 195.27L268.57 195.18L268.54 195.09L268.51 195.01L268.47 194.92L268.44 194.83L268.4 194.75L268.36 194.66L268.32 194.58L268.27 194.5L268.23 194.41L268.18 194.33L268.14 194.25L268.09 194.17L268.04 194.09L267.98 194.01L267.93 193.94L267.87 193.86L267.82 193.79L267.76 193.71L267.7 193.64L267.64 193.57L267.57 193.5L267.51 193.43L267.44 193.36L261.13 187.01L244.92 170.69L244.89 170.66L244.86 170.62L244.83 170.59L244.8 170.56L244.78 170.52L244.75 170.49L244.72 170.45L244.7 170.41L244.68 170.38L244.66 170.34L244.63 170.3L244.61 170.27L244.6 170.23L244.58 170.19L244.56 170.15L244.54 170.11L244.53 170.07L244.51 170.03L244.5 169.99L244.49 169.95L244.48 169.9L244.47 169.86L244.46 169.82L244.45 169.78L244.45 169.74L244.44 169.69L244.44 169.65L244.43 169.61L244.43 169.57L244.43 169.52L244.43 169.48L244.43 169.44L244.43 169.39L244.44 169.35L244.44 169.31L244.45 169.26L244.45 169.22L244.46 169.18L244.47 169.14L244.48 169.09L261.13 101.79L267.22 77.19L271.48 59.97L271.51 59.84L271.56 59.71L271.61 59.6L271.67 59.49L271.73 59.38L271.8 59.29L271.88 59.2L271.96 59.11L272.04 59.04L272.13 58.97L272.22 58.9L272.32 58.85L272.42 58.8L272.52 58.75L272.63 58.72L272.74 58.69L272.84 58.66L272.95 58.65L273.06 58.64L273.17 58.63L273.29 58.64L273.4 58.65ZM271.97 229.91L271.39 230.04L270.83 230.22L270.29 230.45L269.78 230.72L269.29 231.03L268.84 231.38L268.24 231.95L267.71 232.59L267.26 233.28L266.89 234.04L266.62 234.84L266.45 235.69L266.39 236.57L266.44 237.49L266.67 238.61L267.08 239.66L267.65 240.62L268.36 241.47L269.2 242.19L270.15 242.77L271.19 243.19L272.3 243.43L273.82 243.45L275.25 243.16L276.55 242.58L277.69 241.76L278.64 240.71L279.35 239.49L279.81 238.12L279.97 236.64L279.93 235.86L279.8 235.1L279.59 234.38L279.31 233.69L278.95 233.04L278.53 232.43L278.05 231.88L277.51 231.38L277.06 231.03L276.57 230.72L276.06 230.45L275.52 230.22L274.96 230.04L274.39 229.91L273.79 229.83L273.18 229.81L272.57 229.83L271.97 229.91Z" id="a1hxj6c0n6"></path><path d="M292.62 243.31C292.6 243.29 292.48 243.17 292.47 243.16C292.56 243.05 292.66 242.94 292.77 242.84C292.72 242.99 292.67 243.16 292.62 243.31Z" id="m3VQI5e2uq"></path><path d="M292.77 243.46C292.76 243.45 292.71 243.4 292.62 243.31L293.26 242.99C293.04 243.2 292.88 243.36 292.77 243.46Z" id="f2B1um5zMc"></path></defs><g><g><g><use xlink:href="#a1PO7PB2Pd" opacity="1" fill="#3369ff" fill-opacity="1"></use><g><use xlink:href="#a1PO7PB2Pd" opacity="1" fill-opacity="0" stroke="#000000" stroke-width="1" stroke-opacity="0"></use></g></g><g><use xlink:href="#bhByo6gmA" opacity="1" fill="#3369ff" fill-opacity="1"></use><g><use xlink:href="#bhByo6gmA" opacity="1" fill-opacity="0" stroke="#000000" stroke-width="1" stroke-opacity="0"></use></g></g><g><use xlink:href="#a7EfJntkX" opacity="1" fill="#3369ff" fill-opacity="1"></use><g><use xlink:href="#a7EfJntkX" opacity="1" fill-opacity="0" stroke="#000000" stroke-width="1" stroke-opacity="0"></use></g></g><g><use xlink:href="#a2LWzWmQK" opacity="1" fill="#3369ff" fill-opacity="1"></use><g><use xlink:href="#a2LWzWmQK" opacity="1" fill-opacity="0" stroke="#000000" stroke-width="1" stroke-opacity="0"></use></g></g><g><use xlink:href="#a1hxj6c0n6" opacity="1" fill="#3369ff" fill-opacity="1"></use><g><use xlink:href="#a1hxj6c0n6" opacity="1" fill-opacity="0" stroke="#000000" stroke-width="1" stroke-opacity="0"></use></g></g><g><use xlink:href="#m3VQI5e2uq" opacity="1" fill="#3369ff" fill-opacity="1"></use><g><use xlink:href="#m3VQI5e2uq" opacity="1" fill-opacity="0" stroke="#000000" stroke-width="1" stroke-opacity="0"></use></g></g><g><use xlink:href="#f2B1um5zMc" opacity="1" fill="#3369ff" fill-opacity="1"></use><g><use xlink:href="#f2B1um5zMc" opacity="1" fill-opacity="0" stroke="#000000" stroke-width="1" stroke-opacity="0"></use></g></g></g></g></svg>